<?xml version="1.0" encoding="UTF-8"?>
<svg id="Layer_1" data-name="Layer 1" xmlns="http://www.w3.org/2000/svg" viewBox="0 0 376.57 425.67">
  <defs>
    <style>
      .cls-1 {
        fill: #d1d3d4;
      }

      .cls-2, .cls-3, .cls-4, .cls-5 {
        fill: #231f20;
      }

      .cls-3 {
        stroke-width: 3.41px;
      }

      .cls-3, .cls-4, .cls-5 {
        stroke: #231f20;
        stroke-miterlimit: 10;
      }

      .cls-4 {
        stroke-width: 1.97px;
      }

      .cls-5 {
        stroke-width: 1.4px;
      }
    </style>
  </defs>
  <path class="cls-2" d="M369.51,7.41L4.91,7.67V0s368.63.03,368.63.03l-.99,4.88c-.29,1.45-1.57,2.5-3.05,2.5Z"/>
  <polygon class="cls-2" points="180.65 425.67 147.36 425.67 147.23 3.36 180.65 3.36 180.65 425.67"/>
  <path class="cls-2" d="M372.9.03h.9c2.69-.01,3.79,3.44,1.6,4.99l-223.79,158.62c-1.82,1.29-4.34-.01-4.34-2.24,0,0,.44-6.4,1.19-6.91L371.35.52c.46-.32,1-.49,1.55-.49Z"/>
  <polygon class="cls-2" points="147.44 411.36 147.35 425.67 0 262.68 8.96 256.14 147.44 411.36"/>
  <polygon class="cls-1" points="147.28 155.31 147.28 166.72 13.94 261.72 0 262.68 147.28 155.31"/>
  <path class="cls-3" d="M178.94,98.36s-1.57,16.03,7.49,20.56c5.68,2.84,15.58,1.23,19.99-2.15,8.39-6.44-34.99,25.82-34.99,25.82l7.51-44.23Z"/>
  <path class="cls-4" d="M210.86,6.34s-22.06-.6-27.41,6.39c-4.45,5.81-3.93,12.9-3.82,16.2.22,7.07-6.21-22.22-6.21-22.22l37.44-.37Z"/>
  <path class="cls-5" d="M345.08,19.54s6.52-4.66,5.81-8.75c-.61-3.52-4.61-4.24-9.55-4.24-5.25,0,21.29,0,21.29,0l-17.55,12.99Z"/>
</svg>